<?xml version="1.0" encoding="UTF-8"?>
<svg xmlns="http://www.w3.org/2000/svg" xmlns:xlink="http://www.w3.org/1999/xlink" width="83px" height="83px" viewBox="0 0 83 83" version="1.1">
<g id="surface1">
<path style=" stroke:none;fill-rule:nonzero;fill:rgb(100%,100%,100%);fill-opacity:1;" d="M 67.449219 64.101562 L 67.449219 62.429688 L 64.101562 62.429688 L 64.101562 33.964844 L 67.449219 33.964844 L 67.449219 32.289062 L 69.964844 32.289062 L 69.964844 27.269531 L 67.449219 27.269531 L 41.5 11.363281 L 15.550781 27.269531 L 13.035156 27.269531 L 13.035156 32.289062 L 15.550781 32.289062 L 15.550781 33.964844 L 18.898438 33.964844 L 18.898438 62.429688 L 15.550781 62.429688 L 15.550781 64.101562 L 9.6875 68.289062 L 9.6875 71.636719 L 73.3125 71.636719 L 73.3125 68.289062 Z M 28.941406 62.429688 L 23.921875 62.429688 L 23.921875 33.964844 L 28.941406 33.964844 Z M 38.988281 62.429688 L 33.964844 62.429688 L 33.964844 33.964844 L 38.988281 33.964844 Z M 40.664062 25.59375 C 38.820312 25.59375 37.316406 24.085938 37.316406 22.246094 C 37.316406 20.402344 38.820312 18.898438 40.664062 18.898438 C 42.507812 18.898438 44.011719 20.402344 44.011719 22.246094 C 44.011719 24.085938 42.507812 25.59375 40.664062 25.59375 Z M 49.035156 62.429688 L 44.011719 62.429688 L 44.011719 33.964844 L 49.035156 33.964844 Z M 59.078125 62.429688 L 54.058594 62.429688 L 54.058594 33.964844 L 59.078125 33.964844 Z M 59.078125 62.429688 "/>
</g>
</svg>
