<?xml version="1.0" encoding="UTF-8"?>
<svg xmlns="http://www.w3.org/2000/svg" xmlns:xlink="http://www.w3.org/1999/xlink" width="90px" height="80px" viewBox="0 0 90 80" version="1.1">
<g id="surface1">
<path style=" stroke:none;fill-rule:nonzero;fill:rgb(100%,100%,100%);fill-opacity:1;" d="M 73.136719 61.785156 L 73.136719 60.171875 L 69.507812 60.171875 L 69.507812 32.738281 L 73.136719 32.738281 L 73.136719 31.121094 L 75.867188 31.121094 L 75.867188 26.285156 L 73.136719 26.285156 L 45 10.953125 L 16.863281 26.285156 L 14.132812 26.285156 L 14.132812 31.121094 L 16.863281 31.121094 L 16.863281 32.738281 L 20.492188 32.738281 L 20.492188 60.171875 L 16.863281 60.171875 L 16.863281 61.785156 L 10.503906 65.820312 L 10.503906 69.046875 L 79.496094 69.046875 L 79.496094 65.820312 Z M 31.382812 60.171875 L 25.941406 60.171875 L 25.941406 32.738281 L 31.382812 32.738281 Z M 42.277344 60.171875 L 36.832031 60.171875 L 36.832031 32.738281 L 42.277344 32.738281 Z M 44.09375 24.667969 C 42.09375 24.667969 40.464844 23.214844 40.464844 21.441406 C 40.464844 19.664062 42.09375 18.214844 44.09375 18.214844 C 46.09375 18.214844 47.722656 19.664062 47.722656 21.441406 C 47.722656 23.214844 46.09375 24.667969 44.09375 24.667969 Z M 53.167969 60.171875 L 47.722656 60.171875 L 47.722656 32.738281 L 53.167969 32.738281 Z M 64.058594 60.171875 L 58.617188 60.171875 L 58.617188 32.738281 L 64.058594 32.738281 Z M 64.058594 60.171875 "/>
</g>
</svg>
