<?xml version="1.0" encoding="UTF-8"?>
<svg xmlns="http://www.w3.org/2000/svg" xmlns:xlink="http://www.w3.org/1999/xlink" width="90px" height="80px" viewBox="0 0 90 80" version="1.1">
<g id="surface1">
<path style=" stroke:none;fill-rule:nonzero;fill:rgb(0%,0%,0%);fill-opacity:1;" d="M 7.78125 50.488281 L 75.644531 50.488281 L 67.585938 43.324219 C 66.558594 42.347656 66.621094 40.8125 67.71875 39.902344 C 68.765625 39.035156 70.386719 39.035156 71.433594 39.902344 L 84.140625 51.203125 C 85.203125 52.144531 85.203125 53.671875 84.140625 54.621094 L 71.433594 65.917969 C 70.371094 66.859375 68.644531 66.859375 67.585938 65.917969 C 66.523438 64.972656 66.523438 63.441406 67.585938 62.496094 L 75.644531 55.332031 L 7.78125 55.332031 C 6.277344 55.332031 5.0625 54.242188 5.0625 52.910156 C 5.0625 51.574219 6.277344 50.488281 7.78125 50.488281 Z M 7.78125 50.488281 "/>
<path style=" stroke:none;fill-rule:nonzero;fill:rgb(0%,0%,0%);fill-opacity:1;" d="M 82.21875 24.667969 L 14.355469 24.667969 L 22.414062 17.503906 C 23.515625 16.589844 23.578125 15.0625 22.550781 14.082031 C 21.527344 13.105469 19.804688 13.046875 18.703125 13.960938 C 18.65625 14 18.609375 14.042969 18.566406 14.082031 L 5.859375 25.378906 C 4.796875 26.328125 4.796875 27.855469 5.859375 28.796875 L 18.566406 40.097656 C 19.628906 41.042969 21.355469 41.042969 22.414062 40.097656 C 23.476562 39.148438 23.476562 37.621094 22.414062 36.675781 L 14.355469 29.511719 L 82.21875 29.511719 C 83.722656 29.511719 84.9375 28.425781 84.9375 27.089844 C 84.9375 25.757812 83.722656 24.667969 82.21875 24.667969 Z M 82.21875 24.667969 "/>
</g>
</svg>
