<?xml version="1.0" encoding="UTF-8"?>
<svg xmlns="http://www.w3.org/2000/svg" xmlns:xlink="http://www.w3.org/1999/xlink" width="90px" height="80px" viewBox="0 0 90 80" version="1.1">
<g id="surface1">
<path style=" stroke:none;fill-rule:nonzero;fill:rgb(0%,0%,0%);fill-opacity:1;" d="M 51.5625 22.417969 C 51.5625 25.667969 48.65625 28.25 45 28.25 C 41.34375 28.25 38.4375 25.667969 38.4375 22.417969 C 38.4375 19.167969 41.34375 16.582031 45 16.582031 C 48.65625 16.582031 51.5625 19.25 51.5625 22.417969 "/>
<path style=" stroke:none;fill-rule:nonzero;fill:rgb(0%,0%,0%);fill-opacity:1;" d="M 77.8125 25.75 C 77.8125 29 74.90625 31.582031 71.25 31.582031 C 67.59375 31.582031 64.6875 29 64.6875 25.75 C 64.6875 22.5 67.59375 19.917969 71.25 19.917969 C 74.90625 19.917969 77.8125 22.5 77.8125 25.75 "/>
<path style=" stroke:none;fill-rule:nonzero;fill:rgb(0%,0%,0%);fill-opacity:1;" d="M 25.3125 25.75 C 25.3125 29 22.40625 31.582031 18.75 31.582031 C 15.09375 31.582031 12.1875 29 12.1875 25.75 C 12.1875 22.5 15.09375 19.917969 18.75 19.917969 C 22.40625 19.917969 25.3125 22.5 25.3125 25.75 "/>
<path style=" stroke:none;fill-rule:nonzero;fill:rgb(0%,0%,0%);fill-opacity:1;" d="M 8.0625 63.417969 C 8.0625 51.25 24.5625 41.417969 45 41.417969 C 65.34375 41.417969 81.9375 51.25 81.9375 63.417969 Z M 8.0625 63.417969 "/>
<path style=" stroke:none;fill-rule:nonzero;fill:rgb(0%,0%,0%);fill-opacity:1;" d="M 16.5 44.5 C 20.4375 42.167969 25.03125 40.332031 30 39.167969 L 30 38.25 C 30 37.332031 29.53125 36.417969 28.875 35.832031 C 28.59375 35.582031 27.9375 35.25 27.09375 34.917969 C 21.9375 32.75 15.84375 32.75 10.59375 34.832031 C 9.65625 35.167969 8.90625 35.582031 8.53125 35.832031 C 7.96875 36.417969 7.5 37.332031 7.5 38.25 L 7.5 52.417969 C 9.65625 49.5 12.65625 46.75 16.5 44.5 "/>
<path style=" stroke:none;fill-rule:nonzero;fill:rgb(0%,0%,0%);fill-opacity:1;" d="M 56.25 38.332031 L 56.25 34.917969 C 56.25 34 55.78125 33.082031 55.125 32.5 C 54.84375 32.25 54.1875 31.917969 53.34375 31.582031 C 48.1875 29.417969 42.09375 29.417969 36.84375 31.5 C 35.90625 31.832031 35.15625 32.25 34.78125 32.5 C 34.03125 33.082031 33.65625 34 33.65625 34.917969 L 33.65625 38.332031 C 37.3125 37.667969 41.0625 37.332031 44.90625 37.332031 C 48.75 37.332031 52.59375 37.75 56.25 38.332031 "/>
<path style=" stroke:none;fill-rule:nonzero;fill:rgb(0%,0%,0%);fill-opacity:1;" d="M 82.5 52.417969 L 82.5 38.25 C 82.5 37.332031 82.03125 36.417969 81.375 35.832031 C 81.09375 35.582031 80.4375 35.25 79.59375 34.917969 C 74.4375 32.75 68.34375 32.75 63.09375 34.832031 C 62.15625 35.167969 61.40625 35.582031 61.03125 35.832031 C 60.28125 36.417969 59.90625 37.332031 59.90625 38.25 L 59.90625 39.167969 C 64.875 40.332031 69.46875 42.167969 73.40625 44.5 C 77.34375 46.75 80.34375 49.5 82.5 52.417969 "/>
</g>
</svg>
