<?xml version="1.0" encoding="UTF-8"?>
<svg xmlns="http://www.w3.org/2000/svg" xmlns:xlink="http://www.w3.org/1999/xlink" width="90px" height="80px" viewBox="0 0 90 80" version="1.1">
<g id="surface1">
<path style=" stroke:none;fill-rule:nonzero;fill:rgb(100%,100%,100%);fill-opacity:1;" d="M 75.234375 70.78125 L 14.765625 70.78125 C 12.328125 70.78125 10.03125 69.933594 8.300781 68.40625 C 6.578125 66.863281 5.625 64.824219 5.625 62.65625 L 5.625 17.34375 C 5.625 15.171875 6.578125 13.136719 8.300781 11.597656 C 10.03125 10.066406 12.324219 9.21875 14.765625 9.21875 L 75.234375 9.21875 C 77.671875 9.21875 79.96875 10.066406 81.699219 11.59375 C 83.421875 13.136719 84.375 15.175781 84.375 17.34375 L 84.375 62.65625 C 84.375 64.824219 83.421875 66.863281 81.703125 68.402344 C 79.96875 69.933594 77.671875 70.78125 75.234375 70.78125 Z M 14.765625 12.96875 C 13.449219 12.96875 12.214844 13.425781 11.28125 14.25 C 10.355469 15.074219 9.84375 16.175781 9.84375 17.34375 L 9.84375 62.65625 C 9.84375 63.824219 10.355469 64.925781 11.285156 65.753906 C 12.203125 66.5625 13.46875 67.03125 14.765625 67.03125 L 75.234375 67.03125 C 76.550781 67.03125 77.78125 66.574219 78.71875 65.75 C 79.644531 64.921875 80.15625 63.824219 80.15625 62.65625 L 80.15625 17.34375 C 80.15625 16.191406 79.628906 15.066406 78.714844 14.246094 C 77.785156 13.425781 76.550781 12.96875 75.234375 12.96875 Z M 14.765625 12.96875 "/>
<path style=" stroke:none;fill-rule:nonzero;fill:rgb(100%,100%,100%);fill-opacity:1;" d="M 20.160156 61.347656 L 20.15625 61.347656 C 18.589844 61.347656 17.105469 60.675781 16.183594 59.550781 C 15.257812 58.425781 14.992188 56.964844 15.476562 55.636719 C 17.820312 49.355469 25.042969 44.980469 33.046875 44.980469 C 41.078125 44.980469 48.285156 49.363281 50.570312 55.644531 C 51.046875 56.964844 50.78125 58.414062 49.871094 59.527344 C 48.957031 60.640625 47.488281 61.304688 45.933594 61.304688 C 39.746094 61.347656 26.515625 61.347656 20.160156 61.347656 Z M 33.046875 48.730469 C 26.835938 48.730469 21.257812 52.046875 19.484375 56.800781 C 19.421875 56.972656 19.460938 57.179688 19.59375 57.339844 C 19.722656 57.503906 19.9375 57.597656 20.15625 57.597656 L 20.160156 57.597656 C 26.515625 57.597656 39.726562 57.597656 45.914062 57.554688 C 46.140625 57.554688 46.339844 57.46875 46.460938 57.316406 C 46.585938 57.167969 46.617188 56.972656 46.554688 56.792969 C 44.828125 52.046875 39.273438 48.730469 33.046875 48.730469 Z M 33.046875 48.730469 "/>
<path style=" stroke:none;fill-rule:nonzero;fill:rgb(100%,100%,100%);fill-opacity:1;" d="M 33.046875 41.875 C 26.070312 41.875 20.390625 36.824219 20.390625 30.625 C 20.390625 24.425781 26.070312 19.375 33.046875 19.375 C 40.023438 19.375 45.703125 24.425781 45.703125 30.625 C 45.703125 36.824219 40.023438 41.875 33.046875 41.875 Z M 33.046875 23.125 C 28.390625 23.125 24.609375 26.488281 24.609375 30.625 C 24.609375 34.761719 28.390625 38.125 33.046875 38.125 C 37.703125 38.125 41.484375 34.761719 41.484375 30.625 C 41.484375 26.488281 37.703125 23.125 33.046875 23.125 Z M 33.046875 23.125 "/>
<path style=" stroke:none;fill-rule:nonzero;fill:rgb(100%,100%,100%);fill-opacity:1;" d="M 73.125 24.375 L 53.4375 24.375 C 52.273438 24.375 51.328125 23.535156 51.328125 22.5 C 51.328125 21.464844 52.273438 20.625 53.4375 20.625 L 73.125 20.625 C 74.289062 20.625 75.234375 21.464844 75.234375 22.5 C 75.234375 23.535156 74.289062 24.375 73.125 24.375 Z M 73.125 24.375 "/>
<path style=" stroke:none;fill-rule:nonzero;fill:rgb(100%,100%,100%);fill-opacity:1;" d="M 73.125 35 L 53.4375 35 C 52.273438 35 51.328125 34.160156 51.328125 33.125 C 51.328125 32.089844 52.273438 31.25 53.4375 31.25 L 73.125 31.25 C 74.289062 31.25 75.234375 32.089844 75.234375 33.125 C 75.234375 34.160156 74.289062 35 73.125 35 Z M 73.125 35 "/>
<path style=" stroke:none;fill-rule:nonzero;fill:rgb(100%,100%,100%);fill-opacity:1;" d="M 73.125 45.625 L 53.4375 45.625 C 52.273438 45.625 51.328125 44.785156 51.328125 43.75 C 51.328125 42.714844 52.273438 41.875 53.4375 41.875 L 73.125 41.875 C 74.289062 41.875 75.234375 42.714844 75.234375 43.75 C 75.234375 44.785156 74.289062 45.625 73.125 45.625 Z M 73.125 45.625 "/>
</g>
</svg>
