<?xml version="1.0" encoding="UTF-8"?>
<svg xmlns="http://www.w3.org/2000/svg" xmlns:xlink="http://www.w3.org/1999/xlink" width="90px" height="80px" viewBox="0 0 90 80" version="1.1">
<g id="surface1">
<path style=" stroke:none;fill-rule:nonzero;fill:rgb(100%,100%,100%);fill-opacity:1;" d="M 76.773438 40.808594 C 76.320312 40.808594 75.957031 40.566406 75.679688 40.324219 C 75.226562 39.921875 74.957031 39.195312 74.957031 38.464844 C 74.957031 37.421875 75.773438 36.609375 76.496094 36.125 L 76.589844 36.046875 C 78.3125 36.851562 78.585938 37.660156 78.585938 38.386719 C 78.585938 39.675781 77.769531 40.808594 76.773438 40.808594 Z M 52.078125 24.914062 C 51.808594 25.476562 51.082031 25.878906 50.445312 25.878906 C 50.175781 25.878906 49.898438 25.800781 49.71875 25.71875 C 46.816406 24.507812 43.636719 23.863281 40.640625 23.863281 C 38.917969 23.863281 37.191406 24.105469 35.46875 24.507812 C 34.472656 24.75 33.472656 24.265625 33.199219 23.378906 C 32.925781 22.488281 33.472656 21.605469 34.472656 21.359375 C 36.46875 20.878906 38.554688 20.636719 40.550781 20.636719 C 44 20.636719 47.726562 21.359375 51.082031 22.734375 C 52.078125 23.140625 52.53125 24.105469 52.078125 24.914062 Z M 83.398438 31.121094 C 81.128906 30.800781 78.3125 31.367188 76.042969 32.496094 C 73.957031 32.09375 70.78125 32.09375 67.878906 32.984375 C 63.605469 23.941406 51.714844 17.40625 40.460938 17.40625 C 36.558594 17.40625 32.65625 18.214844 29.113281 19.664062 L 17.953125 14.984375 C 17.222656 14.664062 16.40625 15.308594 16.675781 15.957031 L 20.308594 25.074219 C 18.132812 27.089844 16.316406 29.429688 15.042969 32.011719 C 14.863281 32.496094 14.410156 32.820312 13.773438 32.984375 L 10.507812 33.707031 C 8.871094 34.03125 7.78125 35.320312 7.78125 36.851562 L 7.78125 43.148438 C 7.78125 44.601562 8.871094 45.890625 10.507812 46.292969 L 13.863281 47.015625 C 14.410156 47.179688 14.863281 47.503906 15.136719 47.988281 C 16.675781 51.136719 19.039062 53.957031 21.945312 56.296875 C 22.214844 56.539062 22.488281 56.859375 22.578125 57.265625 L 23.9375 64.609375 C 24.121094 65.417969 24.847656 65.980469 25.753906 65.980469 L 31.746094 65.980469 C 32.65625 65.980469 33.378906 65.417969 33.5625 64.609375 L 34.015625 62.027344 C 36.105469 62.515625 38.285156 62.753906 40.550781 62.753906 C 43.003906 62.753906 45.546875 62.429688 47.902344 61.863281 L 48.449219 64.609375 C 48.632812 65.417969 49.359375 65.980469 50.265625 65.980469 L 56.257812 65.980469 C 57.164062 65.980469 57.890625 65.417969 58.070312 64.609375 L 59.433594 57.265625 C 59.523438 56.859375 59.707031 56.539062 60.070312 56.296875 C 65.605469 52.019531 69.507812 46.375 69.507812 40 C 69.507812 38.628906 69.328125 37.335938 68.964844 36.046875 C 70.050781 35.722656 71.234375 35.484375 72.324219 35.484375 C 71.6875 36.371094 71.324219 37.335938 71.324219 38.386719 C 71.234375 40 71.960938 41.535156 73.140625 42.664062 C 74.140625 43.550781 75.410156 44.113281 76.773438 44.113281 C 79.765625 44.113281 82.21875 41.613281 82.21875 38.464844 C 82.21875 36.933594 81.582031 35.5625 80.308594 34.511719 C 81.21875 34.351562 82.035156 34.269531 82.851562 34.351562 C 83.851562 34.511719 84.757812 33.867188 84.9375 32.984375 C 85.03125 32.09375 84.398438 31.285156 83.398438 31.121094 Z M 83.398438 31.121094 "/>
</g>
</svg>
