<?xml version="1.0" encoding="UTF-8"?>
<svg xmlns="http://www.w3.org/2000/svg" xmlns:xlink="http://www.w3.org/1999/xlink" width="90px" height="80px" viewBox="0 0 90 80" version="1.1">
<g id="surface1">
<path style=" stroke:none;fill-rule:nonzero;fill:rgb(100%,100%,100%);fill-opacity:1;" d="M 45.597656 73.335938 L 45.597656 66.109375 C 45.636719 64.964844 45.042969 63.882812 44.027344 63.21875 C 41.773438 61.601562 39.160156 60.460938 36.371094 59.882812 C 34.28125 59.304688 32.117188 58.980469 29.933594 58.925781 C 27.757812 58.921875 25.597656 59.230469 23.53125 59.839844 C 20.785156 60.527344 18.1875 61.652344 15.871094 63.179688 C 14.890625 63.863281 14.316406 64.933594 14.308594 66.070312 L 14.308594 73.335938 Z M 45.597656 73.335938 "/>
<path style=" stroke:none;fill-rule:nonzero;fill:rgb(100%,100%,100%);fill-opacity:1;" d="M 37.761719 49.726562 C 37.761719 53.714844 34.257812 56.949219 29.933594 56.949219 C 25.609375 56.949219 22.105469 53.714844 22.105469 49.726562 C 22.105469 45.734375 25.609375 42.5 29.933594 42.5 C 34.257812 42.5 37.761719 45.734375 37.761719 49.726562 Z M 37.761719 49.726562 "/>
<path style=" stroke:none;fill-rule:nonzero;fill:rgb(100%,100%,100%);fill-opacity:1;" d="M 72.539062 7.5 L 35.421875 7.5 C 34.214844 7.511719 33.242188 8.417969 33.246094 9.535156 L 33.246094 36.304688 C 33.234375 37.40625 34.195312 38.320312 35.398438 38.335938 C 35.402344 38.335938 35.402344 38.335938 35.40625 38.335938 L 42.269531 38.335938 L 42.269531 46.738281 L 50.546875 38.335938 L 72.492188 38.335938 C 73.703125 38.332031 74.675781 37.421875 74.671875 36.308594 C 74.671875 36.308594 74.671875 36.304688 74.671875 36.304688 L 74.71875 9.554688 C 74.738281 8.445312 73.78125 7.519531 72.574219 7.5 C 72.5625 7.5 72.554688 7.5 72.539062 7.5 Z M 59.894531 15.328125 L 61.296875 14.035156 C 61.542969 13.847656 61.898438 13.886719 62.09375 14.117188 C 62.261719 14.304688 62.261719 14.578125 62.097656 14.765625 L 60.703125 16.058594 C 60.59375 16.152344 60.453125 16.207031 60.304688 16.207031 C 60.152344 16.207031 60.007812 16.152344 59.894531 16.058594 C 59.710938 15.851562 59.722656 15.550781 59.925781 15.359375 Z M 53.421875 11.324219 C 53.382812 11.035156 53.601562 10.773438 53.914062 10.738281 C 54.226562 10.703125 54.511719 10.90625 54.550781 11.191406 C 54.558594 11.234375 54.558594 11.28125 54.550781 11.324219 L 54.550781 13.144531 C 54.589844 13.429688 54.367188 13.691406 54.058594 13.730469 C 53.746094 13.769531 53.460938 13.5625 53.421875 13.273438 C 53.414062 13.226562 53.414062 13.183594 53.421875 13.144531 Z M 45.890625 13.929688 C 46.101562 13.730469 46.449219 13.726562 46.671875 13.921875 C 46.675781 13.925781 46.679688 13.925781 46.683594 13.929688 L 48.085938 15.222656 C 48.300781 15.429688 48.300781 15.757812 48.085938 15.957031 C 47.980469 16.054688 47.835938 16.109375 47.6875 16.109375 C 47.535156 16.109375 47.390625 16.054688 47.28125 15.957031 L 45.890625 14.667969 C 45.695312 14.464844 45.707031 14.160156 45.917969 13.964844 Z M 45.207031 21.664062 L 43.261719 21.664062 C 42.949219 21.628906 42.730469 21.367188 42.769531 21.078125 C 42.800781 20.839844 43.007812 20.652344 43.261719 20.625 L 45.207031 20.625 C 45.515625 20.589844 45.796875 20.792969 45.839844 21.078125 C 45.878906 21.367188 45.660156 21.628906 45.347656 21.664062 C 45.296875 21.671875 45.25 21.671875 45.207031 21.664062 Z M 48.074219 27 L 46.679688 28.292969 C 46.429688 28.46875 46.070312 28.429688 45.875 28.199219 C 45.714844 28.011719 45.714844 27.742188 45.878906 27.550781 L 47.273438 26.269531 C 47.515625 26.082031 47.875 26.117188 48.070312 26.347656 C 48.234375 26.539062 48.238281 26.808594 48.074219 27 Z M 53.964844 32.914062 C 53.027344 32.917969 52.246094 32.265625 52.160156 31.40625 L 55.6875 31.40625 C 55.601562 32.242188 54.867188 32.882812 53.964844 32.914062 Z M 56.167969 30.371094 L 51.75 30.371094 C 51.300781 30.371094 50.9375 30.03125 50.9375 29.617188 C 50.9375 29.199219 51.300781 28.867188 51.75 28.867188 L 56.167969 28.867188 C 56.613281 28.867188 56.980469 29.199219 56.980469 29.617188 C 56.980469 30.03125 56.613281 30.371094 56.167969 30.371094 Z M 57.242188 27.777344 C 57.226562 27.804688 57.195312 27.828125 57.160156 27.828125 L 50.757812 27.828125 C 50.734375 27.832031 50.699219 27.832031 50.675781 27.828125 C 50.21875 26.902344 49.644531 26.039062 48.960938 25.253906 C 48.472656 24.746094 48.085938 24.160156 47.824219 23.527344 C 47.535156 22.855469 47.375 22.144531 47.351562 21.425781 L 47.351562 21.164062 C 47.488281 17.796875 50.554688 15.175781 54.203125 15.292969 C 57.664062 15.410156 60.4375 17.976562 60.5625 21.164062 L 60.5625 21.386719 C 60.539062 22.105469 60.386719 22.816406 60.105469 23.496094 C 59.835938 24.121094 59.453125 24.707031 58.964844 25.214844 C 58.285156 26 57.703125 26.859375 57.242188 27.777344 Z M 62.128906 28.179688 C 62.019531 28.269531 61.878906 28.324219 61.730469 28.324219 C 61.578125 28.324219 61.4375 28.269531 61.320312 28.179688 L 59.925781 26.886719 C 59.730469 26.660156 59.773438 26.324219 60.019531 26.148438 C 60.230469 25.996094 60.519531 25.996094 60.726562 26.152344 L 62.128906 27.4375 C 62.34375 27.636719 62.34375 27.96875 62.128906 28.179688 Z M 64.65625 21.664062 L 62.6875 21.664062 C 62.375 21.699219 62.09375 21.503906 62.050781 21.210938 C 62.011719 20.921875 62.234375 20.660156 62.546875 20.625 C 62.59375 20.617188 62.636719 20.617188 62.6875 20.625 L 64.65625 20.625 C 64.96875 20.589844 65.253906 20.792969 65.292969 21.078125 C 65.332031 21.367188 65.109375 21.628906 64.796875 21.664062 C 64.75 21.671875 64.703125 21.671875 64.65625 21.664062 Z M 64.65625 21.664062 "/>
</g>
</svg>
