<?xml version="1.0" encoding="UTF-8"?>
<svg xmlns="http://www.w3.org/2000/svg" xmlns:xlink="http://www.w3.org/1999/xlink" width="90px" height="80px" viewBox="0 0 90 80" version="1.1">
<g id="surface1">
<path style=" stroke:none;fill-rule:nonzero;fill:rgb(100%,100%,100%);fill-opacity:1;" d="M 79.492188 59.363281 C 79.492188 60.414062 78.132812 61.382812 75.863281 62.109375 L 75.863281 59.203125 C 77.136719 58.882812 78.40625 58.394531 79.492188 57.914062 Z M 72.230469 54.039062 L 72.230469 51.136719 C 73.503906 50.8125 74.773438 50.328125 75.863281 49.84375 L 75.863281 51.296875 C 75.863281 52.347656 74.5 53.3125 72.230469 54.039062 Z M 72.230469 63.078125 C 71.144531 63.320312 69.875 63.480469 68.601562 63.640625 L 68.601562 60.492188 C 69.78125 60.335938 71.050781 60.171875 72.230469 60.011719 Z M 64.96875 52.421875 C 66.148438 52.265625 67.421875 52.105469 68.601562 51.941406 L 68.601562 55.011719 C 67.511719 55.25 66.242188 55.410156 64.96875 55.574219 Z M 64.96875 64.042969 C 63.789062 64.125 62.609375 64.203125 61.339844 64.203125 L 61.339844 60.980469 C 62.429688 60.980469 63.699219 60.898438 64.96875 60.816406 Z M 57.707031 56.136719 L 57.707031 52.910156 C 58.800781 52.910156 60.070312 52.828125 61.339844 52.75 L 61.339844 55.976562 C 60.15625 56.058594 58.976562 56.058594 57.707031 56.136719 Z M 57.707031 64.203125 C 56.4375 64.203125 55.257812 64.125 54.078125 64.042969 L 54.078125 60.980469 C 54.710938 60.980469 55.257812 60.980469 55.890625 60.980469 C 56.4375 60.980469 57.074219 60.980469 57.707031 60.980469 Z M 50.445312 52.75 C 51.628906 52.828125 52.808594 52.910156 54.078125 52.910156 L 54.078125 56.136719 C 52.808594 56.136719 51.628906 56.058594 50.445312 55.976562 Z M 50.445312 63.640625 C 49.175781 63.480469 47.902344 63.320312 46.816406 63.078125 L 46.816406 60.492188 C 47.996094 60.65625 49.175781 60.734375 50.445312 60.816406 Z M 43.183594 55.011719 L 43.183594 51.859375 C 44.363281 52.019531 45.546875 52.265625 46.816406 52.347656 L 46.816406 55.574219 C 45.546875 55.410156 44.273438 55.25 43.183594 55.011719 Z M 43.183594 62.109375 C 40.917969 61.300781 39.554688 60.335938 39.554688 59.363281 L 39.554688 59.203125 C 39.554688 59.203125 39.554688 59.203125 39.644531 59.203125 C 39.917969 59.285156 40.101562 59.363281 40.371094 59.363281 C 41.28125 59.609375 42.1875 59.765625 43.183594 59.929688 Z M 28.660156 51.136719 C 29.296875 51.136719 29.84375 51.214844 30.476562 51.214844 L 30.476562 51.296875 C 30.476562 52.421875 30.746094 53.554688 31.382812 54.445312 C 30.476562 54.445312 29.566406 54.359375 28.660156 54.28125 Z M 25.03125 41.453125 C 26.210938 41.613281 27.390625 41.855469 28.660156 41.9375 L 28.660156 45.167969 C 27.390625 45.003906 26.117188 44.839844 25.03125 44.601562 Z M 25.03125 53.957031 C 23.757812 53.796875 22.488281 53.636719 21.398438 53.394531 L 21.398438 50.246094 C 22.578125 50.410156 23.757812 50.652344 25.03125 50.734375 Z M 17.769531 40.808594 L 17.769531 39.355469 C 18.855469 39.835938 20.035156 40.242188 21.398438 40.566406 L 21.398438 43.550781 C 19.132812 42.828125 17.769531 41.855469 17.769531 40.808594 Z M 17.769531 52.421875 C 15.5 51.617188 14.136719 50.652344 14.136719 49.679688 L 14.136719 48.230469 C 15.226562 48.714844 16.40625 49.117188 17.769531 49.441406 Z M 14.136719 27.25 C 15.226562 27.734375 16.40625 28.140625 17.769531 28.464844 L 17.769531 31.449219 C 15.5 30.640625 14.136719 29.671875 14.136719 28.703125 Z M 25.03125 29.832031 L 25.03125 33.058594 C 23.757812 32.898438 22.488281 32.734375 21.398438 32.496094 L 21.398438 29.351562 C 22.578125 29.511719 23.757812 29.671875 25.03125 29.832031 Z M 34.109375 15.796875 C 45.183594 15.796875 54.078125 17.972656 54.078125 20.636719 C 54.078125 23.296875 45.183594 25.476562 34.109375 25.476562 C 23.035156 25.476562 14.136719 23.296875 14.136719 20.636719 C 14.136719 17.972656 23.035156 15.796875 34.109375 15.796875 Z M 39.554688 54.039062 C 37.285156 53.234375 35.921875 52.265625 35.921875 51.296875 L 35.921875 49.84375 C 37.011719 50.328125 38.191406 50.734375 39.554688 51.054688 Z M 50.445312 31.449219 L 50.445312 28.542969 C 51.714844 28.21875 52.988281 27.734375 54.078125 27.25 L 54.078125 28.703125 C 54.078125 29.753906 52.714844 30.722656 50.445312 31.449219 Z M 43.183594 32.984375 L 43.183594 29.832031 C 44.363281 29.671875 45.636719 29.511719 46.816406 29.351562 L 46.816406 32.417969 C 45.726562 32.65625 44.453125 32.820312 43.183594 32.984375 Z M 35.921875 33.546875 L 35.921875 30.320312 C 37.011719 30.320312 38.285156 30.234375 39.554688 30.15625 L 39.554688 33.386719 C 38.371094 33.464844 37.191406 33.464844 35.921875 33.546875 Z M 28.660156 33.386719 L 28.660156 30.15625 C 29.84375 30.234375 31.023438 30.320312 32.292969 30.320312 L 32.292969 33.546875 C 31.023438 33.464844 29.84375 33.464844 28.660156 33.386719 Z M 75.863281 43.230469 C 75.863281 45.890625 66.964844 48.070312 55.890625 48.070312 C 44.816406 48.070312 35.921875 45.890625 35.921875 43.230469 C 35.921875 40.566406 44.816406 38.386719 55.890625 38.386719 C 66.964844 38.386719 75.863281 40.566406 75.863281 43.230469 Z M 81.308594 45.648438 L 81.308594 43.230469 C 81.308594 39.433594 77.953125 36.695312 71.414062 35.160156 C 68.964844 34.59375 66.148438 34.109375 62.972656 33.867188 C 63.066406 33.546875 63.066406 33.140625 63.066406 32.734375 C 63.066406 30.480469 61.886719 28.542969 59.433594 27.089844 L 59.433594 20.636719 C 59.433594 16.84375 56.074219 14.097656 49.539062 12.566406 C 45.273438 11.515625 39.824219 10.953125 34.015625 10.953125 C 26.394531 10.953125 8.597656 11.921875 8.597656 20.636719 L 8.597656 28.703125 C 8.597656 30.964844 9.78125 32.898438 12.230469 34.351562 L 12.230469 35.886719 C 10.050781 37.257812 8.597656 39.109375 8.597656 41.613281 L 8.597656 49.679688 C 8.597656 53.472656 11.957031 56.21875 18.492188 57.75 C 22.761719 58.796875 28.207031 59.363281 34.015625 59.363281 C 34.015625 63.15625 37.375 65.902344 43.910156 67.433594 C 48.179688 68.484375 53.625 69.046875 59.433594 69.046875 C 67.058594 69.046875 84.851562 68.078125 84.851562 59.363281 L 84.851562 51.296875 C 84.9375 49.035156 83.757812 47.101562 81.308594 45.648438 Z M 81.308594 45.648438 "/>
</g>
</svg>
