<?xml version="1.0" encoding="UTF-8"?>
<svg xmlns="http://www.w3.org/2000/svg" xmlns:xlink="http://www.w3.org/1999/xlink" width="90px" height="80px" viewBox="0 0 90 80" version="1.1">
<g id="surface1">
<path style=" stroke:none;fill-rule:nonzero;fill:rgb(100%,100%,100%);fill-opacity:1;" d="M 58.996094 41.667969 C 55.828125 39.265625 51.710938 38.140625 47.8125 37.058594 L 47.8125 16.90625 C 51.597656 17.226562 55.136719 18.722656 57.804688 21.132812 L 62.308594 17.300781 C 58.453125 13.820312 53.292969 11.71875 47.8125 11.410156 L 47.8125 4.167969 L 42.1875 4.167969 L 42.1875 11.726562 C 40.261719 12.054688 38.40625 12.648438 36.675781 13.476562 C 29.566406 16.917969 25.941406 25 28.859375 31.808594 C 31.117188 37.058594 36.5625 39.402344 42.1875 41.160156 L 42.1875 62.976562 C 37.828125 62.5 34.207031 60.273438 31.207031 57.5 L 26.707031 61.328125 C 28.855469 63.484375 31.40625 65.292969 34.253906 66.667969 C 36.746094 67.722656 39.4375 68.351562 42.1875 68.523438 L 42.1875 75.832031 L 47.8125 75.832031 L 47.8125 68.332031 C 54.261719 67.375 60.1875 63.851562 62.738281 58.332031 C 65.289062 52.816406 64.359375 45.742188 58.996094 41.667969 Z M 37.5 33.109375 C 32.34375 29.242188 33.601562 21.757812 39.066406 18.660156 C 40.035156 18.105469 41.085938 17.675781 42.1875 17.382812 L 42.1875 35.457031 C 40.492188 34.910156 38.90625 34.113281 37.5 33.109375 Z M 54.460938 59.625 C 52.628906 61.214844 50.320312 62.300781 47.8125 62.75 L 47.8125 42.839844 C 51.5625 43.984375 55.867188 45.433594 57.394531 48.984375 C 58.921875 52.53125 57.386719 56.976562 54.460938 59.625 Z M 54.460938 59.625 "/>
</g>
</svg>
