<?xml version="1.0" encoding="UTF-8"?>
<svg xmlns="http://www.w3.org/2000/svg" xmlns:xlink="http://www.w3.org/1999/xlink" width="57px" height="57px" viewBox="0 0 57 57" version="1.1">
<g id="surface1">
<path style=" stroke:none;fill-rule:nonzero;fill:rgb(100%,100%,100%);fill-opacity:1;" d="M 54.328125 25 C 53.675781 24.34375 52.546875 24.285156 51.835938 24.9375 L 46.550781 30.21875 C 46.015625 18.347656 36.21875 8.96875 24.34375 8.96875 C 15.203125 8.96875 6.945312 14.546875 3.625 23.09375 C 0.296875 31.589844 2.492188 41.324219 9.144531 47.558594 C 9.859375 48.210938 10.984375 48.210938 11.640625 47.441406 C 12.289062 46.730469 12.289062 45.601562 11.578125 44.949219 C 5.40625 39.1875 3.859375 29.984375 7.777344 22.5625 C 11.695312 15.078125 20.1875 11.160156 28.382812 13.003906 C 36.632812 14.84375 42.632812 21.96875 42.988281 30.398438 L 37.585938 24.9375 C 36.871094 24.226562 35.742188 24.226562 35.089844 24.9375 C 34.4375 25.648438 34.378906 26.78125 35.089844 27.429688 L 43.460938 35.804688 C 43.757812 36.097656 44.175781 36.277344 44.59375 36.335938 L 45.066406 36.335938 L 45.183594 36.277344 C 45.242188 36.277344 45.304688 36.21875 45.359375 36.21875 C 45.601562 36.160156 45.777344 35.980469 45.957031 35.804688 L 54.328125 27.429688 C 55.039062 26.78125 55.039062 25.648438 54.328125 25 Z M 54.328125 25 "/>
</g>
</svg>
