<?xml version="1.0" encoding="UTF-8"?>
<svg xmlns="http://www.w3.org/2000/svg" xmlns:xlink="http://www.w3.org/1999/xlink" width="90px" height="80px" viewBox="0 0 90 80" version="1.1">
<g id="surface1">
<path style=" stroke:none;fill-rule:nonzero;fill:rgb(100%,100%,100%);fill-opacity:1;" d="M 42.09375 60.332031 C 41.625 60.332031 41.0625 60.25 40.6875 59.917969 C 39.9375 59.332031 39.84375 58.25 40.5 57.582031 L 44.15625 53.832031 C 44.8125 53.167969 46.03125 53.082031 46.78125 53.667969 C 47.53125 54.25 47.625 55.332031 46.96875 56 L 43.3125 59.75 C 43.03125 60.082031 42.5625 60.25 42.09375 60.332031 Z M 42.09375 60.332031 "/>
<path style=" stroke:none;fill-rule:nonzero;fill:rgb(100%,100%,100%);fill-opacity:1;" d="M 36.375 58.417969 C 35.71875 58.5 35.15625 58.332031 34.59375 57.917969 C 33.65625 57.167969 33.5625 55.832031 34.40625 55 L 38.71875 50.582031 C 39.5625 49.75 41.0625 49.667969 42 50.417969 C 42.9375 51.167969 43.03125 52.5 42.1875 53.332031 L 37.875 57.75 C 37.5 58.167969 36.9375 58.417969 36.375 58.417969 Z M 36.375 58.417969 "/>
<path style=" stroke:none;fill-rule:nonzero;fill:rgb(100%,100%,100%);fill-opacity:1;" d="M 30.46875 55.332031 C 29.71875 55.417969 28.96875 55.167969 28.40625 54.75 C 27.28125 53.832031 27.09375 52.25 28.125 51.25 L 32.4375 46.832031 C 33.46875 45.832031 35.25 45.667969 36.375 46.582031 C 37.5 47.5 37.6875 49.082031 36.65625 50.082031 L 32.34375 54.5 C 31.875 55 31.125 55.332031 30.46875 55.332031 Z M 30.46875 55.332031 "/>
<path style=" stroke:none;fill-rule:nonzero;fill:rgb(100%,100%,100%);fill-opacity:1;" d="M 23.625 52.25 C 22.875 52.332031 22.125 52.082031 21.5625 51.667969 C 20.4375 50.75 20.25 49.167969 21.28125 48.167969 L 26.25 43.167969 C 27.28125 42.167969 29.0625 42 30.1875 42.917969 C 31.3125 43.832031 31.5 45.417969 30.46875 46.417969 L 25.5 51.417969 C 24.9375 51.917969 24.28125 52.167969 23.625 52.25 Z M 23.625 52.25 "/>
<path style=" stroke:none;fill-rule:nonzero;fill:rgb(100%,100%,100%);fill-opacity:1;" d="M 4.3125 33.917969 L 11.53125 37.832031 C 12.375 38.332031 13.59375 38.082031 14.0625 37.25 L 22.78125 24.417969 C 23.34375 23.667969 23.0625 22.582031 22.125 22.167969 L 15 18.25 Z M 4.3125 33.917969 "/>
<path style=" stroke:none;fill-rule:nonzero;fill:rgb(100%,100%,100%);fill-opacity:1;" d="M 65.0625 44.832031 L 49.96875 33.332031 L 48.9375 32.5 L 42.46875 39.082031 C 41.53125 40.082031 40.21875 40.667969 38.71875 40.75 C 38.53125 40.75 38.34375 40.75 38.25 40.75 C 36.84375 40.75 35.53125 40.332031 34.59375 39.5 C 32.25 37.667969 32.0625 34.5 34.03125 32.417969 L 39.5625 26.75 C 35.25 26.25 29.71875 28.25 24 25.75 L 15.84375 37.75 L 22.21875 44.332031 L 24.65625 41.832031 C 25.5 40.917969 26.8125 40.417969 28.21875 40.417969 C 29.34375 40.417969 30.46875 40.75 31.3125 41.417969 C 32.34375 42.167969 32.8125 43.25 32.90625 44.417969 C 33.375 44.25 33.9375 44.167969 34.5 44.167969 C 35.625 44.167969 36.75 44.5 37.59375 45.167969 C 38.625 46 39.1875 47.082031 39.1875 48.25 C 39.5625 48.167969 40.03125 48.082031 40.40625 48.082031 C 41.4375 48.082031 42.375 48.417969 43.21875 49 C 44.0625 49.667969 44.53125 50.582031 44.625 51.582031 C 44.90625 51.5 45.28125 51.417969 45.65625 51.417969 C 46.59375 51.417969 47.4375 51.667969 48.09375 52.25 C 48.84375 52.832031 49.3125 53.667969 49.40625 54.5 C 49.5 55.417969 49.125 56.25 48.46875 56.917969 L 45.28125 60.167969 L 46.59375 61.082031 C 47.25 61.417969 48 61.667969 48.84375 61.582031 C 50.90625 61.417969 52.40625 59.832031 52.21875 58 C 52.21875 58 52.21875 57.917969 52.21875 57.917969 C 52.5 58 52.875 58 53.15625 58 C 55.21875 57.832031 56.71875 56.25 56.53125 54.417969 C 56.53125 54.417969 56.53125 54.332031 56.53125 54.332031 C 56.8125 54.417969 57.1875 54.417969 57.46875 54.417969 C 59.53125 54.25 61.03125 52.667969 60.84375 50.832031 C 60.84375 50.667969 60.75 50.5 60.75 50.332031 C 61.3125 50.582031 61.96875 50.75 62.71875 50.667969 C 64.78125 50.5 66.28125 48.917969 66.09375 47.082031 C 66.1875 46.167969 65.71875 45.417969 65.0625 44.832031 Z M 65.0625 44.832031 "/>
<path style=" stroke:none;fill-rule:nonzero;fill:rgb(100%,100%,100%);fill-opacity:1;" d="M 85.6875 33.917969 L 78.46875 37.832031 C 77.625 38.332031 76.40625 38.082031 75.9375 37.25 L 67.21875 24.417969 C 66.65625 23.667969 66.9375 22.582031 67.875 22.167969 L 75.09375 18.25 Z M 85.6875 33.917969 "/>
<path style=" stroke:none;fill-rule:nonzero;fill:rgb(100%,100%,100%);fill-opacity:1;" d="M 66.09375 26.082031 C 58.3125 28.582031 52.6875 26.167969 46.40625 25.082031 C 46.3125 25.082031 45.9375 25 45.9375 25 C 44.8125 24.917969 43.59375 25.25 42.75 26.082031 L 35.34375 33.582031 C 33.9375 35 34.125 37.082031 35.71875 38.25 C 36.5625 38.832031 37.5 39.167969 38.53125 39.082031 C 39.46875 39 40.40625 38.667969 41.0625 37.917969 C 41.0625 37.917969 48.75 30.082031 48.75 30.082031 L 66.28125 43.5 C 66.75 43.917969 66.9375 44.082031 67.3125 44.582031 L 74.0625 37.667969 Z M 66.09375 26.082031 "/>
</g>
</svg>
