<?xml version="1.0" encoding="UTF-8"?>
<svg xmlns="http://www.w3.org/2000/svg" xmlns:xlink="http://www.w3.org/1999/xlink" width="90px" height="80px" viewBox="0 0 90 80" version="1.1">
<g id="surface1">
<path style=" stroke:none;fill-rule:nonzero;fill:rgb(0%,0%,0%);fill-opacity:1;" d="M 60.503906 43.242188 L 52.84375 40.21875 C 52.304688 40.003906 51.953125 39.523438 51.953125 38.996094 L 51.953125 37.128906 C 54.527344 35.304688 56.183594 32.5 56.183594 29.351562 L 56.183594 26.722656 C 57.03125 26.304688 57.589844 25.5 57.589844 24.601562 L 57.589844 24.34375 C 57.589844 18.863281 52.578125 14.402344 46.410156 14.402344 L 43.589844 14.402344 C 37.425781 14.402344 32.410156 18.863281 32.410156 24.34375 L 32.410156 26.660156 C 32.410156 27.453125 32.792969 28.171875 33.460938 28.628906 C 33.574219 28.707031 33.695312 28.777344 33.820312 28.832031 L 33.820312 29.351562 C 33.820312 32.5 35.472656 35.304688 38.046875 37.128906 L 38.046875 38.996094 C 38.046875 39.523438 37.699219 40.003906 37.15625 40.214844 L 29.496094 43.242188 C 26.984375 44.234375 25.363281 46.453125 25.363281 48.890625 L 25.363281 64.421875 C 25.363281 65.074219 25.953125 65.597656 26.683594 65.597656 C 27.410156 65.597656 28 65.074219 28 64.421875 L 28 48.890625 C 28 48.757812 28.011719 48.621094 28.027344 48.488281 L 31.554688 51.628906 C 32.105469 52.113281 32.410156 52.765625 32.410156 53.453125 L 32.410156 64.421875 C 32.410156 65.074219 33 65.597656 33.726562 65.597656 C 34.457031 65.597656 35.046875 65.074219 35.046875 64.421875 L 35.046875 53.453125 C 35.046875 52.140625 34.46875 50.902344 33.421875 49.972656 L 29.210938 46.226562 C 29.59375 45.878906 30.046875 45.589844 30.5625 45.386719 L 38.097656 42.410156 L 43.683594 47.371094 L 43.683594 64.421875 C 43.683594 65.074219 44.269531 65.597656 45 65.597656 C 45.730469 65.597656 46.320312 65.074219 46.320312 64.421875 L 46.320312 47.371094 L 51.902344 42.410156 L 59.4375 45.386719 C 59.953125 45.589844 60.410156 45.878906 60.789062 46.226562 L 56.578125 49.972656 C 55.53125 50.902344 54.953125 52.140625 54.953125 53.453125 L 54.953125 64.421875 C 54.953125 65.074219 55.546875 65.597656 56.273438 65.597656 C 57 65.597656 57.589844 65.074219 57.589844 64.421875 L 57.589844 53.453125 C 57.589844 52.765625 57.894531 52.113281 58.445312 51.628906 L 61.972656 48.488281 C 61.988281 48.621094 62 48.757812 62 48.890625 L 62 64.421875 C 62 65.074219 62.589844 65.597656 63.316406 65.597656 C 64.046875 65.597656 64.636719 65.074219 64.636719 64.421875 L 64.636719 48.890625 C 64.636719 46.453125 63.015625 44.234375 60.503906 43.242188 Z M 45 45.234375 L 40.101562 40.875 C 40.46875 40.320312 40.683594 39.671875 40.683594 38.996094 L 40.683594 38.519531 C 42.011719 39.015625 43.46875 39.296875 45 39.296875 C 46.53125 39.296875 47.988281 39.015625 49.316406 38.519531 L 49.316406 38.996094 C 49.316406 39.671875 49.53125 40.320312 49.898438 40.875 Z M 45 36.953125 C 40.285156 36.953125 36.457031 33.542969 36.457031 29.351562 L 36.457031 28.828125 C 37.277344 28.535156 38.082031 28.078125 38.847656 27.445312 C 39.386719 27.007812 39.417969 26.265625 38.925781 25.789062 C 38.429688 25.3125 37.59375 25.285156 37.0625 25.722656 C 36.402344 26.265625 35.742188 26.613281 35.105469 26.761719 C 35.085938 26.765625 35.074219 26.765625 35.070312 26.765625 C 35.058594 26.75 35.046875 26.714844 35.046875 26.660156 L 35.046875 24.34375 C 35.046875 20.15625 38.878906 16.746094 43.589844 16.746094 L 46.410156 16.746094 C 51.125 16.746094 54.953125 20.15625 54.953125 24.34375 L 54.953125 24.601562 C 54.953125 24.636719 54.929688 24.671875 54.894531 24.671875 C 47 26.0625 43.039062 23.453125 41.703125 22.265625 C 41.191406 21.800781 40.355469 21.800781 39.839844 22.265625 C 39.328125 22.722656 39.328125 23.464844 39.839844 23.921875 C 43.933594 27.558594 49.90625 27.625 53.546875 27.234375 L 53.546875 29.351562 C 53.546875 33.542969 49.714844 36.953125 45 36.953125 Z M 45 36.953125 "/>
<path style=" stroke:none;fill-rule:nonzero;fill:rgb(0%,0%,0%);fill-opacity:1;" d="M 23.773438 36.867188 L 23.773438 34.359375 C 23.773438 31.304688 21.988281 28.617188 19.292969 27.066406 C 19.460938 26.589844 19.542969 26.09375 19.542969 25.597656 C 19.542969 22.878906 17.058594 20.667969 14 20.667969 C 10.941406 20.667969 8.457031 22.878906 8.457031 25.597656 C 8.457031 26.101562 8.539062 26.59375 8.707031 27.066406 C 6.011719 28.617188 4.226562 31.304688 4.226562 34.359375 L 4.226562 36.867188 C 4.226562 39.828125 5.902344 42.449219 8.457031 44.015625 L 8.457031 46.589844 C 8.457031 47.101562 8.136719 47.558594 7.625 47.785156 L 3.066406 49.8125 C 1.175781 50.652344 0 52.339844 0 54.222656 L 0 64.421875 C 0 65.074219 0.589844 65.597656 1.320312 65.597656 C 2.046875 65.597656 2.636719 65.074219 2.636719 64.421875 L 2.636719 54.726562 L 4.78125 56.640625 C 5.332031 57.125 5.636719 57.773438 5.636719 58.464844 L 5.636719 64.421875 C 5.636719 65.074219 6.226562 65.597656 6.953125 65.597656 C 7.683594 65.597656 8.273438 65.074219 8.273438 64.421875 L 8.273438 58.464844 C 8.273438 57.148438 7.699219 55.910156 6.648438 54.980469 L 3.660156 52.324219 C 3.644531 52.3125 3.628906 52.296875 3.613281 52.289062 C 3.800781 52.140625 4.015625 52.011719 4.246094 51.90625 L 8.804688 49.882812 C 9.039062 49.777344 9.253906 49.65625 9.460938 49.515625 L 12.683594 52.386719 L 12.683594 64.421875 C 12.683594 65.074219 13.273438 65.597656 14 65.597656 C 14.730469 65.597656 15.320312 65.074219 15.320312 64.421875 L 15.320312 52.382812 L 18.542969 49.515625 C 18.746094 49.65625 18.960938 49.777344 19.195312 49.882812 L 20.453125 50.441406 C 20.644531 50.523438 20.84375 50.566406 21.042969 50.566406 C 21.527344 50.566406 21.992188 50.328125 22.222656 49.917969 C 22.546875 49.339844 22.285156 48.632812 21.632812 48.34375 L 20.375 47.785156 C 19.863281 47.558594 19.542969 47.105469 19.542969 46.589844 L 19.542969 44.015625 C 22.097656 42.449219 23.773438 39.828125 23.773438 36.867188 Z M 14 23.011719 C 15.605469 23.011719 16.90625 24.171875 16.90625 25.597656 C 16.90625 25.753906 16.894531 25.910156 16.863281 26.058594 C 15.957031 25.808594 14.996094 25.675781 14 25.675781 C 13.003906 25.675781 12.042969 25.808594 11.140625 26.058594 C 11.109375 25.90625 11.09375 25.753906 11.09375 25.597656 C 11.09375 24.171875 12.394531 23.011719 14 23.011719 Z M 14 28.019531 C 17.933594 28.019531 21.136719 30.863281 21.136719 34.363281 L 21.136719 34.789062 C 15.648438 36.28125 12.378906 32.574219 12.234375 32.410156 C 12.007812 32.136719 11.65625 31.964844 11.277344 31.945312 C 10.894531 31.917969 10.519531 32.042969 10.25 32.28125 C 8.992188 33.402344 7.761719 33.941406 6.871094 34.203125 C 6.964844 30.777344 10.125 28.019531 14 28.019531 Z M 14 50.238281 L 10.953125 47.53125 C 11.042969 47.230469 11.09375 46.917969 11.09375 46.589844 L 11.09375 45.164062 C 12.011719 45.417969 12.984375 45.554688 14 45.554688 C 15.011719 45.554688 15.988281 45.417969 16.90625 45.164062 L 16.90625 46.589844 C 16.90625 46.917969 16.960938 47.234375 17.046875 47.53125 Z M 14 43.210938 C 10.0625 43.210938 6.863281 40.363281 6.863281 36.867188 L 6.863281 36.625 C 7.914062 36.410156 9.472656 35.914062 11.101562 34.75 C 11.675781 35.234375 12.5 35.824219 13.546875 36.328125 C 14.785156 36.933594 16.492188 37.484375 18.585938 37.484375 C 19.375 37.484375 20.226562 37.40625 21.125 37.214844 C 20.921875 40.550781 17.800781 43.210938 14 43.210938 Z M 14 43.210938 "/>
<path style=" stroke:none;fill-rule:nonzero;fill:rgb(0%,0%,0%);fill-opacity:1;" d="M 86.933594 47.308594 L 79.554688 44.027344 C 79.046875 43.800781 78.726562 43.34375 78.726562 42.835938 L 78.726562 41.171875 C 80.453125 39.8125 81.542969 37.828125 81.542969 35.613281 L 81.542969 34.285156 C 81.578125 34.285156 81.605469 34.285156 81.636719 34.285156 C 82.363281 34.285156 82.953125 33.761719 82.953125 33.109375 L 82.953125 30.605469 C 82.953125 26.507812 79.203125 23.171875 74.589844 23.171875 L 71.773438 23.171875 C 67.160156 23.171875 63.410156 26.507812 63.410156 30.605469 L 63.410156 33.109375 C 63.410156 33.761719 64 34.285156 64.726562 34.285156 C 64.738281 34.285156 64.769531 34.285156 64.820312 34.28125 L 64.820312 35.613281 C 64.820312 37.828125 65.910156 39.8125 67.636719 41.171875 L 67.636719 42.835938 C 67.636719 43.34375 67.316406 43.800781 66.808594 44.027344 C 66.15625 44.316406 65.890625 45.023438 66.21875 45.601562 C 66.449219 46.015625 66.914062 46.246094 67.398438 46.246094 C 67.59375 46.246094 67.796875 46.207031 67.988281 46.121094 C 68.222656 46.019531 68.4375 45.898438 68.640625 45.761719 L 71.867188 48.625 L 71.867188 64.421875 C 71.867188 65.074219 72.453125 65.597656 73.183594 65.597656 C 73.910156 65.597656 74.5 65.074219 74.5 64.421875 L 74.5 48.625 L 77.726562 45.761719 C 77.925781 45.898438 78.140625 46.015625 78.375 46.121094 L 85.515625 49.296875 L 83.351562 51.222656 C 82.300781 52.152344 81.726562 53.390625 81.726562 54.707031 L 81.726562 64.421875 C 81.726562 65.074219 82.316406 65.597656 83.046875 65.597656 C 83.773438 65.597656 84.363281 65.074219 84.363281 64.421875 L 84.363281 54.707031 C 84.363281 54.015625 84.667969 53.367188 85.21875 52.882812 L 87.269531 51.054688 C 87.332031 51.269531 87.363281 51.484375 87.363281 51.714844 L 87.363281 64.421875 C 87.363281 65.074219 87.953125 65.597656 88.679688 65.597656 C 89.410156 65.597656 90 65.074219 90 64.421875 L 90 51.714844 C 90 49.835938 88.824219 48.148438 86.933594 47.308594 Z M 66.046875 31.699219 L 66.046875 30.605469 C 66.046875 27.796875 68.613281 25.515625 71.773438 25.515625 L 74.589844 25.515625 C 77.75 25.515625 80.316406 27.796875 80.316406 30.605469 L 80.316406 31.90625 C 74.585938 31.636719 71.128906 29.652344 71.097656 29.632812 C 70.871094 29.5 70.617188 29.433594 70.363281 29.433594 C 70.023438 29.433594 69.6875 29.550781 69.429688 29.777344 C 68.171875 30.898438 66.933594 31.4375 66.046875 31.699219 Z M 73.183594 46.484375 L 70.136719 43.777344 C 70.226562 43.472656 70.273438 43.15625 70.273438 42.835938 L 70.273438 42.582031 C 71.179688 42.890625 72.15625 43.046875 73.183594 43.046875 C 74.207031 43.046875 75.183594 42.890625 76.089844 42.582031 L 76.089844 42.835938 C 76.089844 43.15625 76.140625 43.472656 76.226562 43.777344 Z M 73.183594 40.703125 C 70.023438 40.703125 67.457031 38.421875 67.457031 35.613281 L 67.457031 33.726562 C 68.378906 33.398438 69.457031 32.878906 70.550781 32.046875 C 71.933594 32.6875 74.828125 33.796875 78.90625 34.160156 L 78.90625 35.613281 C 78.90625 38.421875 76.339844 40.703125 73.183594 40.703125 Z M 73.183594 40.703125 "/>
</g>
</svg>
